<svg id="visual" viewBox="0 0 900 600" width="900" height="600" xmlns="http://www.w3.org/2000/svg" xmlns:xlink="http://www.w3.org/1999/xlink" version="1.1"><rect x="0" y="0" width="900" height="600" fill="#111111"></rect><path d="M0 174L129 200L257 171L386 202L514 155L643 247L771 202L900 155L900 0L771 0L643 0L514 0L386 0L257 0L129 0L0 0Z" fill="#f5730a"></path><path d="M0 122L129 125L257 136L386 120L514 150L643 123L771 202L900 159L900 0L771 0L643 0L514 0L386 0L257 0L129 0L0 0Z" fill="#e16109"></path><path d="M0 137L129 152L257 118L386 133L514 136L643 117L771 130L900 131L900 0L771 0L643 0L514 0L386 0L257 0L129 0L0 0Z" fill="#cc4f08"></path><path d="M0 85L129 88L257 79L386 96L514 62L643 93L771 109L900 58L900 0L771 0L643 0L514 0L386 0L257 0L129 0L0 0Z" fill="#b83e06"></path><path d="M0 51L129 51L257 25L386 70L514 49L643 33L771 71L900 70L900 0L771 0L643 0L514 0L386 0L257 0L129 0L0 0Z" fill="#a32d04"></path></svg>