<svg id="visual" viewBox="0 0 900 600" width="900" height="600" xmlns="http://www.w3.org/2000/svg" xmlns:xlink="http://www.w3.org/1999/xlink" version="1.1"><rect x="0" y="0" width="900" height="600" fill="#111111"></rect><defs><linearGradient id="grad1_0" x1="33.3%" y1="0%" x2="100%" y2="100%"><stop offset="20%" stop-color="#111111" stop-opacity="1"></stop><stop offset="80%" stop-color="#111111" stop-opacity="1"></stop></linearGradient></defs><defs><linearGradient id="grad2_0" x1="0%" y1="0%" x2="66.7%" y2="100%"><stop offset="20%" stop-color="#111111" stop-opacity="1"></stop><stop offset="80%" stop-color="#111111" stop-opacity="1"></stop></linearGradient></defs><g transform="translate(900, 0)"><path d="M0 486.7C-57.1 463 -114.3 439.3 -173.4 418.5C-232.4 397.8 -293.4 380 -342.2 342.2C-391 304.5 -427.6 246.6 -449.7 186.3C-471.7 125.9 -479.2 62.9 -486.7 0L0 0Z" fill="#0c0c0c"></path></g><g transform="translate(0, 600)"><path d="M0 -486.7C57.9 -458 115.8 -429.2 165.7 -400C215.6 -370.9 257.6 -341.5 308.3 -308.3C359 -275.1 418.5 -238.3 449.7 -186.3C480.9 -134.3 483.8 -67.1 486.7 0L0 0Z" fill="#0c0c0c"></path></g></svg>