<svg id="visual" viewBox="0 0 1200 600" width="1200" height="600" xmlns="http://www.w3.org/2000/svg" xmlns:xlink="http://www.w3.org/1999/xlink" version="1.1"><path d="M0 414L171 428L343 384L514 418L686 386L857 374L1029 406L1200 433L1200 601L1029 601L857 601L686 601L514 601L343 601L171 601L0 601Z" fill="#003d61"></path><path d="M0 479L171 456L343 472L514 404L686 462L857 429L1029 395L1200 479L1200 601L1029 601L857 601L686 601L514 601L343 601L171 601L0 601Z" fill="#10314c"></path><path d="M0 451L171 480L343 458L514 465L686 444L857 497L1029 444L1200 463L1200 601L1029 601L857 601L686 601L514 601L343 601L171 601L0 601Z" fill="#152637"></path><path d="M0 499L171 534L343 523L514 525L686 542L857 537L1029 497L1200 534L1200 601L1029 601L857 601L686 601L514 601L343 601L171 601L0 601Z" fill="#151c24"></path><path d="M0 573L171 549L343 568L514 567L686 547L857 540L1029 527L1200 562L1200 601L1029 601L857 601L686 601L514 601L343 601L171 601L0 601Z" fill="#111111"></path></svg>