<svg id="visual" viewBox="0 0 1200 600" width="1200" height="600" xmlns="http://www.w3.org/2000/svg" xmlns:xlink="http://www.w3.org/1999/xlink" version="1.1"><rect x="0" y="0" width="1200" height="600" fill="#111111"></rect><path d="M0 168L171 222L343 196L514 237L686 185L857 158L1029 248L1200 162L1200 0L1029 0L857 0L686 0L514 0L343 0L171 0L0 0Z" fill="#003d61"></path><path d="M0 154L171 135L343 148L514 121L686 170L857 176L1029 169L1200 140L1200 0L1029 0L857 0L686 0L514 0L343 0L171 0L0 0Z" fill="#10314c"></path><path d="M0 118L171 127L343 134L514 109L686 105L857 151L1029 112L1200 125L1200 0L1029 0L857 0L686 0L514 0L343 0L171 0L0 0Z" fill="#152637"></path><path d="M0 87L171 116L343 90L514 90L686 84L857 82L1029 100L1200 104L1200 0L1029 0L857 0L686 0L514 0L343 0L171 0L0 0Z" fill="#151c24"></path><path d="M0 50L171 25L343 44L514 28L686 64L857 43L1029 33L1200 59L1200 0L1029 0L857 0L686 0L514 0L343 0L171 0L0 0Z" fill="#111111"></path></svg>