<svg id="visual" viewBox="0 0 900 200" width="900" height="200" xmlns="http://www.w3.org/2000/svg" xmlns:xlink="http://www.w3.org/1999/xlink" version="1.1"><rect x="0" y="0" width="900" height="200" fill="#111111"></rect><path d="M0 127L129 125L257 144L386 128L514 149L643 153L771 139L900 130L900 201L771 201L643 201L514 201L386 201L257 201L129 201L0 201Z" fill="#f5730a"></path><path d="M0 168L129 151L257 158L386 154L514 172L643 158L771 174L900 153L900 201L771 201L643 201L514 201L386 201L257 201L129 201L0 201Z" fill="#d54d00"></path></svg>