<svg id="visual" viewBox="0 0 900 200" width="900" height="200" xmlns="http://www.w3.org/2000/svg" xmlns:xlink="http://www.w3.org/1999/xlink" version="1.1"><rect x="0" y="0" width="900" height="200" fill="#111111"></rect><path d="M0 141L129 132L257 142L386 131L514 147L643 116L771 131L900 147L900 201L771 201L643 201L514 201L386 201L257 201L129 201L0 201Z" fill="#f5730a"></path><path d="M0 158L129 157L257 153L386 159L514 149L643 158L771 131L900 146L900 201L771 201L643 201L514 201L386 201L257 201L129 201L0 201Z" fill="#e16109"></path><path d="M0 153L129 148L257 159L386 154L514 153L643 160L771 155L900 155L900 201L771 201L643 201L514 201L386 201L257 201L129 201L0 201Z" fill="#cc4f08"></path><path d="M0 170L129 169L257 172L386 167L514 178L643 168L771 162L900 179L900 201L771 201L643 201L514 201L386 201L257 201L129 201L0 201Z" fill="#b83e06"></path><path d="M0 182L129 182L257 190L386 175L514 182L643 188L771 175L900 175L900 201L771 201L643 201L514 201L386 201L257 201L129 201L0 201Z" fill="#a32d04"></path></svg>